<?xml version="1.0" encoding="UTF-8"?>
<svg id="Layer_1" xmlns="http://www.w3.org/2000/svg" version="1.1" viewBox="0 0 450 156">
  <!-- Generator: Adobe Illustrator 30.1.0, SVG Export Plug-In . SVG Version: 2.1.1 Build 136)  -->
  <defs>
    <style>
      .st0 {
        fill: #fff;
      }
    </style>
  </defs>
  <path class="st0" d="M56.5,129.4l-5.9,22.2H0L49.7,1h60.5l49.7,150.7h-50.6l-5.9-22.2h-47ZM91.2,82.2c-4-15-7.8-31.5-11-46.8h-.4c-3.2,15.2-7,31.7-11,46.8l-2.7,10.6h27.9l-2.8-10.6Z"/>
  <path class="st0" d="M286.6,97.9c0,34.9-24.6,57.1-62.6,57.1s-62.6-22.2-62.6-57.1,24.5-57.1,62.6-57.1,62.6,22.2,62.6,57.1ZM210,97.9c0,14.8,4.7,23.1,14,23.1s14-8.3,14-23.1-4.7-23.1-14-23.1-14,8.3-14,23.1Z"/>
  <path class="st0" d="M346.5,129.4l-5.9,22.2h-50.6L339.8,1h60.5l49.7,150.7h-50.6l-5.9-22.2h-47ZM381.2,82.2c-4-15-7.8-31.5-11-46.8h-.4c-3.2,15.2-7,31.7-11,46.8l-2.7,10.6h27.9l-2.8-10.6Z"/>
</svg>