<svg xmlns="http://www.w3.org/2000/svg" height="24px" viewBox="0 -960 960 960" width="24px" fill="#1f1f1f"><path d="M520.5-251.02q19.5-19.02 19.5-45.5t-19.36-44.98q-19.36-18.5-45.5-18.5t-45.64 18.52q-19.5 18.52-19.5 45T429.36-251q19.36 19 45.5 19t45.64-19.02ZM423-391h104q0-30.39 7.5-51.2Q542-463 574-495q24-21 38.5-46.86 14.5-25.87 14.5-62.08 0-62.06-40.98-94.56-40.99-32.5-99.7-32.5Q421-731 379-694.5T321-607l96 36q5-19 20-40.5t44-21.5q19 0 29.5 12.25T521-595q0 15-10.5 31T489-539q-43 39-54.5 62.5T423-391Zm57 357q-92.64 0-174.48-34.52-81.84-34.52-142.16-94.84-60.32-60.32-94.84-142.16T34-480q0-92.9 34.58-174.46 34.58-81.57 95.16-142.03 60.58-60.46 142.16-94.98Q387.48-926 480-926q92.89 0 174.49 34.51 81.6 34.51 142.05 94.95 60.44 60.45 94.95 142.08Q926-572.83 926-479.92q0 92.92-34.53 174.26-34.52 81.34-94.98 141.92-60.46 60.58-142.03 95.16Q572.9-34 480-34Z"/></svg>